0
SECTION
2
HEADER
9
$INSUNITS
70
4
0
ENDSEC
0
SECTION
2
TABLES
0
TABLE
2
LAYER
70
4
0
LAYER
2
OUTLINE
70
0
62
1
6
CONTINUOUS
0
ENDTAB
0
TABLE
2
LAYER
70
4
0
LAYER
2
POCKET
70
0
62
5
6
CONTINUOUS
0
ENDTAB
0
TABLE
2
LAYER
70
4
0
LAYER
2
DRILL
70
0
62
3
6
CONTINUOUS
0
ENDTAB
0
TABLE
2
LAYER
70
4
0
LAYER
2
DECOR
70
0
62
2
6
CONTINUOUS
0
ENDTAB
0
ENDSEC
0
SECTION
2
ENTITIES
0
LWPOLYLINE
8
POCKET
90
4
70
1
10
40
20
40
10
240
20
40
10
240
20
140
10
40
20
140
0
LINE
8
OUTLINE
10
10
20
10
11
270
21
10
0
LINE
8
OUTLINE
10
10
20
170
11
270
21
170
0
LINE
8
OUTLINE
10
10
20
10
11
10
21
170
0
LINE
8
OUTLINE
10
270
20
10
11
270
21
170
0
CIRCLE
8
DECOR
10
300
20
60
40
25
0
CIRCLE
8
DECOR
10
300
20
120
40
15
0
ARC
8
DECOR
10
300
20
200
40
30
50
30
51
150
0
ARC
8
DECOR
10
200
20
220
40
20
50
180
51
360
0
CIRCLE
8
DRILL
10
60
20
60
40
3
0
CIRCLE
8
DRILL
10
90
20
60
40
3
0
CIRCLE
8
DRILL
10
120
20
60
40
3
0
CIRCLE
8
DRILL
10
150
20
60
40
3
0
CIRCLE
8
DRILL
10
180
20
60
40
3
0
ENDSEC
0
EOF
